<svg
width='930'
height='275'
viewBox='0 0 930 300'
version='1.1'
xmlns='http://www.w3.org/2000/svg'
xmlns:xlink='http://www.w3.org/1999/xlink'>
<svg class="block" x="0" y="275" width="930.0" height="25">
<style type="text/css">
    .block:hover { stroke:black; stroke-width:0.5; cursor:pointer; }
</style>
<g>
    <title>say_my_name_and_more C:\Users\Joey\PycharmProjects\python-unit-performance-testing\demo\example_code.py 14.0003</title>
    <rect height="100%" width="100%" fill="rgb(246, 65, 45)" rx="2" ry="2" />
    <text alignment-baseline="central" x="4.0" y="12.0" font-size="12px" fill="rgb(0,0,0)">say_my_name_and_more</text>
</g>
</svg>
<svg class="block" x="0" y="250" width="58.125" height="25">
<g>
    <title>built-in method builtins.print ~ 3.6161e-05</title>
    <rect height="100%" width="100%" fill="rgb(255, 235, 24)" rx="2" ry="2" />
    <text alignment-baseline="central" x="4.0" y="12.0" font-size="12px" fill="rgb(0,0,0)">built-in method builtins.print</text>
</g>
</svg>
<svg class="block" x="58.125" y="250" width="116.25" height="25">
<g>
    <title>capitalize_name C:\Users\Joey\PycharmProjects\python-unit-performance-testing\demo\example_code.py 4.822e-06</title>
    <rect height="100%" width="100%" fill="rgb(255, 235, 24)" rx="2" ry="2" />
    <text alignment-baseline="central" x="4.0" y="12.0" font-size="12px" fill="rgb(0,0,0)">capitalize_name</text>
</g>
</svg>
<svg class="block" x="174.375" y="250" width="58.125" height="25">
<g>
    <title>length_of_name C:\Users\Joey\PycharmProjects\python-unit-performance-testing\demo\example_code.py 2.3505e-05</title>
    <rect height="100%" width="100%" fill="rgb(255, 235, 24)" rx="2" ry="2" />
    <text alignment-baseline="central" x="4.0" y="12.0" font-size="12px" fill="rgb(0,0,0)">length_of_name</text>
</g>
</svg>
<svg class="block" x="232.5" y="250" width="116.25" height="25">
<g>
    <title>lowercase_name C:\Users\Joey\PycharmProjects\python-unit-performance-testing\demo\example_code.py 1.506e-06</title>
    <rect height="100%" width="100%" fill="rgb(255, 235, 24)" rx="2" ry="2" />
    <text alignment-baseline="central" x="4.0" y="12.0" font-size="12px" fill="rgb(0,0,0)">lowercase_name</text>
</g>
</svg>
<svg class="block" x="348.75" y="250" width="465.0" height="25">
<g>
    <title>sleep_based_on_name_length C:\Users\Joey\PycharmProjects\python-unit-performance-testing\demo\example_code.py 14.0003</title>
    <rect height="100%" width="100%" fill="rgb(246, 65, 45)" rx="2" ry="2" />
    <text alignment-baseline="central" x="4.0" y="12.0" font-size="12px" fill="rgb(0,0,0)">sleep_based_on_name_length</text>
</g>
</svg>
<svg class="block" x="813.75" y="250" width="116.25" height="25">
<g>
    <title>uppercase_name C:\Users\Joey\PycharmProjects\python-unit-performance-testing\demo\example_code.py 1.808e-06</title>
    <rect height="100%" width="100%" fill="rgb(255, 235, 24)" rx="2" ry="2" />
    <text alignment-baseline="central" x="4.0" y="12.0" font-size="12px" fill="rgb(0,0,0)">uppercase_name</text>
</g>
</svg>
<svg class="block" x="58.125" y="225" width="58.125" height="25">
<g>
    <title>method 'capitalize' of 'str' objects ~ 1.205e-06</title>
    <rect height="100%" width="100%" fill="rgb(255, 235, 24)" rx="2" ry="2" />
    <text alignment-baseline="central" x="4.0" y="12.0" font-size="12px" fill="rgb(0,0,0)">method 'capitalize' of 'str' objects</text>
</g>
</svg>
<svg class="block" x="232.5" y="225" width="58.125" height="25">
<g>
    <title>method 'lower' of 'str' objects ~ 3.01e-07</title>
    <rect height="100%" width="100%" fill="rgb(255, 236, 25)" rx="2" ry="2" />
    <text alignment-baseline="central" x="4.0" y="12.0" font-size="12px" fill="rgb(0,0,0)">method 'lower' of 'str' objects</text>
</g>
</svg>
<svg class="block" x="348.75" y="225" width="58.125" height="25">
<g>
    <title>built-in method time.sleep ~ 14.0003</title>
    <rect height="100%" width="100%" fill="rgb(246, 65, 45)" rx="2" ry="2" />
    <text alignment-baseline="central" x="4.0" y="12.0" font-size="12px" fill="rgb(0,0,0)">built-in method time.sleep</text>
</g>
</svg>
<svg class="block" x="406.875" y="225" width="348.75" height="25">
<g>
    <title>length_of_name C:\Users\Joey\PycharmProjects\python-unit-performance-testing\demo\example_code.py 2.3505e-05</title>
    <rect height="100%" width="100%" fill="rgb(255, 235, 24)" rx="2" ry="2" />
    <text alignment-baseline="central" x="4.0" y="12.0" font-size="12px" fill="rgb(0,0,0)">length_of_name</text>
</g>
</svg>
<svg class="block" x="813.75" y="225" width="58.125" height="25">
<g>
    <title>method 'upper' of 'str' objects ~ 3.01e-07</title>
    <rect height="100%" width="100%" fill="rgb(255, 236, 25)" rx="2" ry="2" />
    <text alignment-baseline="central" x="4.0" y="12.0" font-size="12px" fill="rgb(0,0,0)">method 'upper' of 'str' objects</text>
</g>
</svg>
<svg class="block" x="406.875" y="200" width="58.125" height="25">
<g>
    <title>built-in method builtins.len ~ 3.01e-07</title>
    <rect height="100%" width="100%" fill="rgb(255, 236, 25)" rx="2" ry="2" />
    <text alignment-baseline="central" x="4.0" y="12.0" font-size="12px" fill="rgb(0,0,0)">built-in method builtins.len</text>
</g>
</svg>
<svg class="block" x="465.0" y="200" width="232.5" height="25">
<g>
    <title>show_message_when_name_very_long C:\Users\Joey\PycharmProjects\python-unit-performance-testing\demo\example_code.py 1.9889e-05</title>
    <rect height="100%" width="100%" fill="rgb(255, 235, 24)" rx="2" ry="2" />
    <text alignment-baseline="central" x="4.0" y="12.0" font-size="12px" fill="rgb(0,0,0)">show_message_when_name_very_long</text>
</g>
</svg>
<svg class="block" x="465.0" y="175" width="174.375" height="25">
<g>
    <title>x C:\Users\Joey\PycharmProjects\python-unit-performance-testing\demo\example_code.py 1.0849e-05</title>
    <rect height="100%" width="100%" fill="rgb(255, 235, 24)" rx="2" ry="2" />
    <text alignment-baseline="central" x="4.0" y="12.0" font-size="12px" fill="rgb(0,0,0)">x</text>
</g>
</svg>
<svg class="block" x="465.0" y="150" width="116.25" height="25">
<g>
    <title>y C:\Users\Joey\PycharmProjects\python-unit-performance-testing\demo\example_code.py 9.343e-06</title>
    <rect height="100%" width="100%" fill="rgb(255, 235, 24)" rx="2" ry="2" />
    <text alignment-baseline="central" x="4.0" y="12.0" font-size="12px" fill="rgb(0,0,0)">y</text>
</g>
</svg>
<svg class="block" x="465.0" y="125" width="58.125" height="25">
<g>
    <title>foo C:\Users\Joey\PycharmProjects\python-unit-performance-testing\demo\example_code.py 3.02e-07</title>
    <rect height="100%" width="100%" fill="rgb(255, 235, 24)" rx="2" ry="2" />
    <text alignment-baseline="central" x="4.0" y="12.0" font-size="12px" fill="rgb(0,0,0)">foo</text>
</g>
</svg>
</svg>